<?xml version="1.0" encoding="utf-8"?>
<!-- Generator: Adobe Illustrator 16.0.0, SVG Export Plug-In . SVG Version: 6.00 Build 0)  -->
<!DOCTYPE svg PUBLIC "-//W3C//DTD SVG 1.1//EN" "http://www.w3.org/Graphics/SVG/1.1/DTD/svg11.dtd">
<svg version="1.1" id="Capa_1" xmlns="http://www.w3.org/2000/svg" xmlns:xlink="http://www.w3.org/1999/xlink" x="0px" y="0px"
	 width="16px" height="16px" viewBox="0 0 16 16" enable-background="new 0 0 16 16" xml:space="preserve">
<path fill="#B5B5B5" d="M11.809,1L15,4.262V15H3.916V1H11.809 M12.229,0H2.916v16H16V3.854L12.229,0L12.229,0z"/>
<g>
	<path fill="none" d="M12.001,9.93c0.074-0.045,0.069-0.267-0.364-0.375c-0.433-0.109-0.563-0.106-1.006-0.106
		c-0.242,0-0.511,0.011-0.805,0.032c0.765,0.322,1.311,0.521,1.752,0.521C11.715,10.002,11.928,9.977,12.001,9.93z"/>
	<path fill="none" d="M0.982,13.102c0.371-0.166,0.934-0.691,1.774-2.013c-0.114,0.106-0.238,0.222-0.289,0.263
		C1.663,12,1.119,12.73,0.982,13.102z"/>
	<path fill="none" d="M5.848,4.718c0.166-0.293,0.3-0.688,0.288-1.252C6.125,2.903,5.987,2.302,5.745,2.302
		c-0.111,0-0.101,0.854-0.101,0.854C5.644,3.602,5.71,4.285,5.848,4.718z"/>
	<path fill="none" d="M4.324,9.998c0.927-0.352,1.979-0.639,3.197-0.876C7.438,9.059,7.359,8.996,7.284,8.934
		c-0.599-0.5-1.108-1.123-1.517-1.854C5.561,7.603,5.285,8.24,4.848,9.055C4.668,9.386,4.493,9.7,4.324,9.998z"/>
	<path fill="#DA382D" d="M4.165,8.598L4.12,8.686c-0.365,0.705-0.696,1.301-0.997,1.808l-0.31,0.161
		c-0.022,0.012-0.554,0.289-0.679,0.363c-1.058,0.623-1.759,1.328-1.875,1.889c-0.037,0.178-0.01,0.406,0.179,0.514l0.3,0.148
		c0.13,0.063,0.268,0.097,0.408,0.097c0.753,0,1.628-0.924,2.833-2.995c1.392-0.445,2.976-0.816,4.363-1.021
		c1.059,0.586,2.359,0.994,3.18,0.994c0.146,0,0.271-0.014,0.375-0.041c0.156-0.041,0.289-0.129,0.371-0.25
		c0.16-0.235,0.191-0.562,0.147-0.894c-0.013-0.099-0.093-0.222-0.181-0.304c-0.242-0.237-0.783-0.362-1.605-0.373
		c-0.557-0.006-1.227,0.042-1.932,0.14c-0.315-0.179-0.64-0.375-0.895-0.61C7.115,7.68,6.543,6.804,6.185,5.84
		c0.023-0.09,0.043-0.169,0.062-0.25c0,0,0.387-2.163,0.284-2.895c-0.014-0.1-0.022-0.129-0.05-0.207L6.448,2.403
		C6.342,2.164,6.136,1.911,5.812,1.925L5.623,1.919H5.618c-0.361,0-0.655,0.182-0.732,0.453C4.652,3.224,4.893,4.497,5.332,6.146
		L5.22,6.416C4.906,7.169,4.512,7.928,4.165,8.598z M0.982,13.102C1.119,12.73,1.663,12,2.467,11.352
		c0.051-0.041,0.175-0.156,0.289-0.263C1.916,12.41,1.353,12.936,0.982,13.102z M10.632,9.448c0.442,0,0.573-0.003,1.007,0.106
		c0.432,0.108,0.438,0.329,0.363,0.375c-0.074,0.047-0.286,0.072-0.423,0.072c-0.44,0-0.987-0.197-1.752-0.521
		C10.12,9.459,10.391,9.448,10.632,9.448z M5.745,2.302c0.242,0,0.38,0.601,0.391,1.165C6.148,4.03,6.014,4.425,5.848,4.718
		C5.71,4.285,5.644,3.602,5.644,3.155C5.644,3.155,5.634,2.302,5.745,2.302z M5.767,7.079c0.409,0.732,0.918,1.355,1.517,1.854
		c0.075,0.063,0.154,0.125,0.237,0.188c-1.217,0.236-2.27,0.525-3.197,0.876C4.493,9.7,4.668,9.386,4.848,9.055
		C5.285,8.24,5.561,7.603,5.767,7.079z"/>
</g>
</svg>
